<svg xmlns="http://www.w3.org/2000/svg" viewBox="0 0 1024 1024" width="200" height="200"> <g transform="scale(1, -1) translate(0, -900)" id="main"> <g> <path d="M 350 796 Q 372 775 398 751 Q 411 738 426 739 Q 436 740 441 753 Q 445 766 437 795 Q 428 822 345 842 Q 330 846 324 843 Q 320 839 321 827 Q 324 817 350 796 Z" id="stroke-0" fill="#979797ff"/><path d="M 440 663 Q 450 667 462 668 Q 501 675 506 681 Q 513 688 510 694 Q 504 704 481 710 Q 457 716 367 687 Q 295 672 227 666 Q 199 662 219 647 Q 249 629 311 640 Q 356 649 406 657 L 440 663 Z" id="stroke-1" fill="#979797ff"/><path d="M 253 579 Q 271 542 289 526 Q 299 522 308 529 Q 315 536 316 550 Q 313 581 268 604 Q 258 611 250 610 Q 246 610 245 601 Q 244 592 253 579 Z" id="stroke-2" fill="#979797ff"/><path d="M 407 534 Q 423 556 440 585 Q 449 598 463 614 Q 476 624 469 634 Q 462 647 440 663 C 416 681 399 686 406 657 Q 416 624 370 529 Q 369 528 368 525 C 355 498 390 510 407 534 Z" id="stroke-3" fill="#979797ff"/><path d="M 368 525 Q 170 480 72 469 Q 60 468 57 460 Q 54 450 69 439 Q 105 412 145 426 Q 308 483 509 513 Q 525 514 526 522 Q 527 534 510 542 Q 480 555 407 534 L 368 525 Z" id="stroke-4" fill="#979797ff"/><path d="M 275 204 Q 276 243 280 272 L 282 301 Q 283 344 288 361 Q 288 365 288 367 C 290 382 290 382 281 389 Q 260 410 229 410 Q 216 406 221 395 Q 261 302 220 115 Q 199 55 199 53 Q 199 23 216 1 Q 223 -12 232 -7 Q 271 18 272 138 Q 272 160 274 179 L 275 204 Z" id="stroke-5" fill="#979797ff"/><path d="M 288 367 Q 370 394 385 389 Q 394 383 391 364 Q 404 204 393 79 Q 392 54 377 49 Q 370 48 336 56 Q 326 59 326 53 Q 327 46 339 37 Q 363 12 380 -13 Q 390 -26 402 -26 Q 417 -23 435 20 Q 457 63 454 108 Q 447 214 439 313 Q 435 352 451 382 Q 461 395 449 406 Q 434 418 403 428 Q 391 434 346 413 Q 343 413 281 389 C 253 378 259 358 288 367 Z" id="stroke-6" fill="#979797ff"/><path d="M 280 272 Q 320 282 352 288 Q 368 292 361 302 Q 352 312 332 314 Q 313 314 283 302 Q 282 302 282 301 C 257 285 251 265 280 272 Z" id="stroke-7" fill="#979797ff"/><path d="M 274 179 Q 322 189 359 196 Q 377 200 369 210 Q 360 220 340 223 Q 310 226 275 204 C 249 188 245 173 274 179 Z" id="stroke-8" fill="#979797ff"/><path d="M 649 726 Q 683 714 755 731 Q 785 738 818 746 Q 837 750 840 754 Q 847 761 843 769 Q 836 779 809 785 Q 790 788 711 762 Q 684 756 654 751 C 624 746 620 735 649 726 Z" id="stroke-9" fill="#979797ff"/><path d="M 782 508 Q 800 548 818 590 Q 824 599 834 605 Q 847 614 845 623 Q 842 632 796 659 Q 775 669 758 659 Q 716 640 651 616 Q 632 612 633 631 Q 642 686 649 726 L 654 751 Q 661 788 668 803 Q 678 828 651 842 Q 605 861 591 855 Q 579 851 591 834 Q 607 810 597 678 Q 598 638 581 605 Q 571 590 593 571 Q 609 555 621 567 Q 657 597 735 613 Q 762 620 755 581 Q 749 559 735 516 C 726 487 770 481 782 508 Z" id="stroke-10" fill="#979797ff"/><path d="M 611 438 Q 638 451 791 481 Q 801 482 802 492 Q 802 499 782 508 C 756 521 756 521 735 516 Q 728 515 722 512 Q 647 484 587 469 C 558 462 583 426 611 438 Z" id="stroke-11" fill="#979797ff"/><path d="M 593 190 Q 593 244 594 266 L 595 288 Q 596 322 601 357 L 603 380 Q 604 428 611 438 C 616 458 615 458 587 469 Q 578 475 566 478 Q 553 482 545 477 Q 538 473 544 456 Q 557 417 556 380 Q 546 151 567 88 Q 574 60 599 35 Q 683 -37 849 -15 Q 868 -11 890 -6 Q 933 7 974 40 Q 993 53 983 79 Q 973 109 963 195 Q 964 211 957 218 Q 951 222 945 204 Q 908 114 886 88 Q 873 69 832 58 Q 736 36 656 71 Q 605 98 596 169 L 593 190 Z" id="stroke-12" fill="#979797ff"/><path d="M 601 357 Q 643 353 703 360 Q 788 378 791 379 Q 797 385 794 391 Q 790 400 767 406 Q 745 410 722 402 Q 695 395 667 388 Q 637 384 603 380 C 573 376 571 360 601 357 Z" id="stroke-13" fill="#979797ff"/><path d="M 594 266 Q 624 253 769 279 Q 794 283 798 287 Q 805 293 802 299 Q 798 308 775 314 Q 753 320 730 311 Q 702 302 670 296 Q 636 290 595 288 C 565 286 565 275 594 266 Z" id="stroke-14" fill="#979797ff"/><path d="M 596 169 Q 638 151 674 161 Q 729 170 788 179 Q 813 183 818 188 Q 825 195 822 202 Q 816 212 792 219 Q 773 223 691 203 Q 643 194 600 192 Q 594 192 593 190 C 565 182 568 180 596 169 Z" id="stroke-15" fill="#979797ff"/> <defs> <clipPath id="mask-0"> <use href="#stroke-0"/> </clipPath><clipPath id="mask-1"> <use href="#stroke-1"/> </clipPath><clipPath id="mask-2"> <use href="#stroke-2"/> </clipPath><clipPath id="mask-3"> <use href="#stroke-3"/> </clipPath><clipPath id="mask-4"> <use href="#stroke-4"/> </clipPath><clipPath id="mask-5"> <use href="#stroke-5"/> </clipPath><clipPath id="mask-6"> <use href="#stroke-6"/> </clipPath><clipPath id="mask-7"> <use href="#stroke-7"/> </clipPath><clipPath id="mask-8"> <use href="#stroke-8"/> </clipPath><clipPath id="mask-9"> <use href="#stroke-9"/> </clipPath><clipPath id="mask-10"> <use href="#stroke-10"/> </clipPath><clipPath id="mask-11"> <use href="#stroke-11"/> </clipPath><clipPath id="mask-12"> <use href="#stroke-12"/> </clipPath><clipPath id="mask-13"> <use href="#stroke-13"/> </clipPath><clipPath id="mask-14"> <use href="#stroke-14"/> </clipPath><clipPath id="mask-15"> <use href="#stroke-15"/> </clipPath> </defs> <g id="drawing" opacity="1"> <path d="M266.21253499880845,878.0211438007784 L404,788 L423,757" stroke-width="150" stroke-linecap="round" stroke-linejoin="miter" stroke="black" fill="none" clip-path="url(#mask-0)" pathLength="1" stroke-dasharray="1" stroke-dashoffset="1"> <animate id="draw0" attributeName="stroke-dashoffset" values="1;0" dur="214.08154224008354ms" begin="0;fadeOut.end + 10ms" fill="freeze"/> <set attributeName="stroke-dashoffset" to="1" begin="fadeOut.end"/> </path><path d="M146.00616294836487,657.96145944938 L299,656 L462,690 L500,690" stroke-width="150" stroke-linecap="round" stroke-linejoin="miter" stroke="black" fill="none" clip-path="url(#mask-1)" pathLength="1" stroke-dasharray="1" stroke-dashoffset="1"> <animate id="draw1" attributeName="stroke-dashoffset" values="1;0" dur="268.88013381627246ms" begin="draw0.end + 35ms" fill="freeze"/> <set attributeName="stroke-dashoffset" to="1" begin="fadeOut.end"/> </path><path d="M203.07888647811987,657.9721575851383 L286,565 L296,540" stroke-width="150" stroke-linecap="round" stroke-linejoin="miter" stroke="black" fill="none" clip-path="url(#mask-2)" pathLength="1" stroke-dasharray="1" stroke-dashoffset="1"> <animate id="draw2" attributeName="stroke-dashoffset" values="1;0" dur="196.77641577122213ms" begin="draw1.end + 35ms" fill="freeze"/> <set attributeName="stroke-dashoffset" to="1" begin="fadeOut.end"/> </path><path d="M361.12899229502005,709.1102583470616 L436,628 L397,548 L376,538" stroke-width="150" stroke-linecap="round" stroke-linejoin="miter" stroke="black" fill="none" clip-path="url(#mask-3)" pathLength="1" stroke-dasharray="1" stroke-dashoffset="1"> <animate id="draw3" attributeName="stroke-dashoffset" values="1;0" dur="221.675056553797ms" begin="draw2.end + 35ms" fill="freeze"/> <set attributeName="stroke-dashoffset" to="1" begin="fadeOut.end"/> </path><path d="M-6.127877323796284,467.4042888190456 L120,448 L440,523 L492,529 L516,525" stroke-width="150" stroke-linecap="round" stroke-linejoin="miter" stroke="black" fill="none" clip-path="url(#mask-4)" pathLength="1" stroke-dasharray="1" stroke-dashoffset="1"> <animate id="draw4" attributeName="stroke-dashoffset" values="1;0" dur="330.28579482200666ms" begin="draw3.end + 35ms" fill="freeze"/> <set attributeName="stroke-dashoffset" to="1" begin="fadeOut.end"/> </path><path d="M175.97598398813892,452.02312652994027 L257,374 L262,295 L249,127 L230,48 L227,3" stroke-width="150" stroke-linecap="round" stroke-linejoin="miter" stroke="black" fill="none" clip-path="url(#mask-5)" pathLength="1" stroke-dasharray="1" stroke-dashoffset="1"> <animate id="draw5" attributeName="stroke-dashoffset" values="1;0" dur="314.0236721838015ms" begin="draw4.end + 35ms" fill="freeze"/> <set attributeName="stroke-dashoffset" to="1" begin="fadeOut.end"/> </path><path d="M287.69739490580935,301.5791592464749 L298,384 L380,409 L396,408 L421,388 L416,337 L425,147 L421,64 L412,39 L395,21 L332,51" stroke-width="150" stroke-linecap="round" stroke-linejoin="miter" stroke="black" fill="none" clip-path="url(#mask-6)" pathLength="1" stroke-dasharray="1" stroke-dashoffset="1"> <animate id="draw6" attributeName="stroke-dashoffset" values="1;0" dur="375.62395160160816ms" begin="draw5.end + 35ms" fill="freeze"/> <set attributeName="stroke-dashoffset" to="1" begin="fadeOut.end"/> </path><path d="M244.30925158772686,217.3355856267166 L296,292 L338,300 L354,297" stroke-width="150" stroke-linecap="round" stroke-linejoin="miter" stroke="black" fill="none" clip-path="url(#mask-7)" pathLength="1" stroke-dasharray="1" stroke-dashoffset="1"> <animate id="draw7" attributeName="stroke-dashoffset" values="1;0" dur="196.1958639424319ms" begin="draw6.end + 35ms" fill="freeze"/> <set attributeName="stroke-dashoffset" to="1" begin="fadeOut.end"/> </path><path d="M243.20967308569354,120.21658243261749 L288,197 L313,204 L345,209 L362,204" stroke-width="150" stroke-linecap="round" stroke-linejoin="miter" stroke="black" fill="none" clip-path="url(#mask-8)" pathLength="1" stroke-dasharray="1" stroke-dashoffset="1"> <animate id="draw8" attributeName="stroke-dashoffset" values="1;0" dur="201.48679400615586ms" begin="draw7.end + 35ms" fill="freeze"/> <set attributeName="stroke-dashoffset" to="1" begin="fadeOut.end"/> </path><path d="M582.8950761103795,714.2467882752953 L800,764 L832,763" stroke-width="150" stroke-linecap="round" stroke-linejoin="miter" stroke="black" fill="none" clip-path="url(#mask-9)" pathLength="1" stroke-dasharray="1" stroke-dashoffset="1"> <animate id="draw9" attributeName="stroke-dashoffset" values="1;0" dur="232.91197087493703ms" begin="draw8.end + 35ms" fill="freeze"/> <set attributeName="stroke-dashoffset" to="1" begin="fadeOut.end"/> </path><path d="M540.1069014856175,895.0096144602369 L634,811 L612,599 L656,602 L736,631 L779,630 L791,618 L784,580 L767,536 L744,522" stroke-width="150" stroke-linecap="round" stroke-linejoin="miter" stroke="black" fill="none" clip-path="url(#mask-10)" pathLength="1" stroke-dasharray="1" stroke-dashoffset="1"> <animate id="draw10" attributeName="stroke-dashoffset" values="1;0" dur="368.114750569163ms" begin="draw9.end + 35ms" fill="freeze"/> <set attributeName="stroke-dashoffset" to="1" begin="fadeOut.end"/> </path><path d="M524.5154932383672,492.6307297315028 L617,459 L739,494 L792,491" stroke-width="150" stroke-linecap="round" stroke-linejoin="miter" stroke="black" fill="none" clip-path="url(#mask-11)" pathLength="1" stroke-dasharray="1" stroke-dashoffset="1"> <animate id="draw11" attributeName="stroke-dashoffset" values="1;0" dur="241.19541554974228ms" begin="draw10.end + 35ms" fill="freeze"/> <set attributeName="stroke-dashoffset" to="1" begin="fadeOut.end"/> </path><path d="M499.96699141100896,521.033008588991 L572,449 L580,430 L572,209 L581,130 L600,80 L643,42 L690,24 L747,15 L835,20 L884,34 L934,72 L956,211" stroke-width="150" stroke-linecap="round" stroke-linejoin="miter" stroke="black" fill="none" clip-path="url(#mask-12)" pathLength="1" stroke-dasharray="1" stroke-dashoffset="1"> <animate id="draw12" attributeName="stroke-dashoffset" values="1;0" dur="488.38926229203554ms" begin="draw11.end + 35ms" fill="freeze"/> <set attributeName="stroke-dashoffset" to="1" begin="fadeOut.end"/> </path><path d="M554.966991411009,308.96699141100896 L615,369 L713,378 L746,389 L787,386" stroke-width="150" stroke-linecap="round" stroke-linejoin="miter" stroke="black" fill="none" clip-path="url(#mask-13)" pathLength="1" stroke-dasharray="1" stroke-dashoffset="1"> <animate id="draw13" attributeName="stroke-dashoffset" values="1;0" dur="234.47229473077363ms" begin="draw12.end + 35ms" fill="freeze"/> <set attributeName="stroke-dashoffset" to="1" begin="fadeOut.end"/> </path><path d="M524.4796058907712,262.53177339667855 L687,281 L765,298 L791,296" stroke-width="150" stroke-linecap="round" stroke-linejoin="miter" stroke="black" fill="none" clip-path="url(#mask-14)" pathLength="1" stroke-dasharray="1" stroke-dashoffset="1"> <animate id="draw14" attributeName="stroke-dashoffset" values="1;0" dur="238.06598419873586ms" begin="draw13.end + 35ms" fill="freeze"/> <set attributeName="stroke-dashoffset" to="1" begin="fadeOut.end"/> </path><path d="M524.829268292683,201.46341463414635 L638,176 L772,198 L811,198" stroke-width="150" stroke-linecap="round" stroke-linejoin="miter" stroke="black" fill="none" clip-path="url(#mask-15)" pathLength="1" stroke-dasharray="1" stroke-dashoffset="1"> <animate id="draw15" attributeName="stroke-dashoffset" values="1;0" dur="245.52788655095026ms" begin="draw14.end + 35ms" fill="freeze"/> <set attributeName="stroke-dashoffset" to="1" begin="fadeOut.end"/> </path> <animate id="fadeOut" attributeName="opacity" values="1;0" dur="500ms" begin="draw15.end + 1400ms"/> </g> </g> </g></svg>