<svg xmlns="http://www.w3.org/2000/svg" viewBox="0 0 1024 1024" width="200" height="200"> <g transform="scale(1, -1) translate(0, -900)" id="main"> <g> <path d="M 508 507 Q 571 520 641 532 Q 711 547 722 556 Q 732 565 727 574 Q 720 587 687 597 Q 653 604 618 592 Q 548 570 477 552 L 419 540 Q 335 525 240 517 Q 200 511 228 492 Q 273 465 352 480 Q 379 486 409 489 L 466 500 Q 470 501 475 501 L 508 507 Z" id="stroke-0" fill="brown"/><path d="M 477 552 Q 492 631 505 726 Q 512 747 515 759 Q 524 781 502 795 Q 451 828 435 826 Q 413 825 427 798 Q 454 738 419 540 L 409 489 Q 408 488 408 484 Q 366 268 206 133 Q 200 130 195 124 Q 123 70 122 66 Q 119 59 133 58 Q 151 57 175 70 Q 242 106 284 143 Q 375 227 419 338 Q 446 416 466 500 L 477 552 Z" id="stroke-1" fill="brown"/><path d="M 490 167 Q 493 82 536 49 Q 596 6 795 13 Q 886 17 923 36 Q 954 52 942 85 Q 924 133 915 216 Q 914 232 906 238 Q 897 244 893 222 Q 874 122 858 103 Q 824 66 689 65 Q 614 66 583 79 Q 555 94 549 112 Q 539 139 534 193 L 533 243 Q 533 357 561 427 Q 574 458 555 476 Q 527 498 508 507 C 482 522 465 529 475 501 Q 474 497 478 489 Q 499 449 493 391 Q 489 279 489 208 L 490 167 Z" id="stroke-2" fill="brown"/><path d="M 489 208 Q 461 186 430 163 Q 418 156 414 151 Q 408 141 422 140 Q 432 140 490 167 L 534 193 Q 760 373 764 381 Q 764 384 764 388 Q 763 401 742 430 Q 721 455 703 459 Q 685 462 687 439 Q 691 411 677 392 Q 635 338 533 243 L 489 208 Z" id="stroke-3" fill="brown"/><path d="M 693 701 Q 724 676 757 646 Q 772 633 788 634 Q 800 634 805 648 Q 809 664 799 695 Q 792 717 758 731 Q 679 758 664 751 Q 658 747 661 733 Q 665 723 693 701 Z" id="stroke-4" fill="brown"/> <defs> <clipPath id="mask-0"> <use href="#stroke-0"/> </clipPath><clipPath id="mask-1"> <use href="#stroke-1"/> </clipPath><clipPath id="mask-2"> <use href="#stroke-2"/> </clipPath><clipPath id="mask-3"> <use href="#stroke-3"/> </clipPath><clipPath id="mask-4"> <use href="#stroke-4"/> </clipPath> </defs> <g id="drawing" opacity="1"> <path d="M157.1091183885244,518.8505881063436 L277,498 L339,502 L510,533 L655,568 L715,568" stroke-width="150" stroke-linecap="round" stroke-linejoin="miter" stroke="red" fill="none" clip-path="url(#mask-0)" pathLength="1" stroke-dasharray="1" stroke-dashoffset="1"> <animate id="draw0" attributeName="stroke-dashoffset" values="1;0" dur="342.11982673110776ms" begin="0;fadeOut.end + 10ms" fill="freeze"/> <set attributeName="stroke-dashoffset" to="1" begin="fadeOut.end"/> </path><path d="M385.0972106434164,866.9884953756791 L476,765 L447,538 L397,353 L359,273 L296,188 L236,131 L162,79 L128,63" stroke-width="150" stroke-linecap="round" stroke-linejoin="miter" stroke="red" fill="none" clip-path="url(#mask-1)" pathLength="1" stroke-dasharray="1" stroke-dashoffset="1"> <animate id="draw1" attributeName="stroke-dashoffset" values="1;0" dur="480.5371827207459ms" begin="draw0.end + 35ms" fill="freeze"/> <set attributeName="stroke-dashoffset" to="1" begin="fadeOut.end"/> </path><path d="M415.5061365375909,530.6924505021265 L505,484 L529,445 L515,345 L511,188 L524,109 L553,68 L607,47 L720,38 L822,47 L877,64 L896,75 L903,229" stroke-width="150" stroke-linecap="round" stroke-linejoin="miter" stroke="red" fill="none" clip-path="url(#mask-2)" pathLength="1" stroke-dasharray="1" stroke-dashoffset="1"> <animate id="draw2" attributeName="stroke-dashoffset" values="1;0" dur="508.5963188226031ms" begin="draw1.end + 35ms" fill="freeze"/> <set attributeName="stroke-dashoffset" to="1" begin="fadeOut.end"/> </path><path d="M667.754981470574,512.7145389117948 L720,403 L719,390 L705,373 L535,216 L474,174 L422,148" stroke-width="150" stroke-linecap="round" stroke-linejoin="miter" stroke="red" fill="none" clip-path="url(#mask-3)" pathLength="1" stroke-dasharray="1" stroke-dashoffset="1"> <animate id="draw3" attributeName="stroke-dashoffset" values="1;0" dur="325.8147694717236ms" begin="draw2.end + 35ms" fill="freeze"/> <set attributeName="stroke-dashoffset" to="1" begin="fadeOut.end"/> </path><path d="M604.3734009483901,782.0578861081702 L759,691 L788,652" stroke-width="150" stroke-linecap="round" stroke-linejoin="miter" stroke="red" fill="none" clip-path="url(#mask-4)" pathLength="1" stroke-dasharray="1" stroke-dashoffset="1"> <animate id="draw4" attributeName="stroke-dashoffset" values="1;0" dur="223.56629946474226ms" begin="draw3.end + 35ms" fill="freeze"/> <set attributeName="stroke-dashoffset" to="1" begin="fadeOut.end"/> </path> <animate id="fadeOut" attributeName="opacity" values="1;0" dur="500ms" begin="draw4.end + 1400ms"/> </g> </g> </g></svg>